<?xml version="1.0" ?><svg id="Layer_1" style="enable-background:new 0 0 64 64;" version="1.1" viewBox="0 0 64 64" xml:space="preserve" xmlns="http://www.w3.org/2000/svg" xmlns:xlink="http://www.w3.org/1999/xlink"><style type="text/css">
	.st0{fill:#FF6C58;}
	.st1{fill-rule:evenodd;clip-rule:evenodd;fill:#FF424D;}
	.st2{fill:#314A52;}
	.st3{fill-rule:evenodd;clip-rule:evenodd;fill:#052C49;}
</style><g id="Patreon"><circle class="st0" cx="40" cy="24" r="22"/><path class="st1" d="M30.5,6.4C24.2,9.8,20,16.4,20,24c0,11,9,14,20,14c11,0,20-3,20-14h2c0,8.7-2.6,16.3-9.5,20.5   C48.8,46.7,44.6,48,40,48c-13.3,0-24-10.7-24-24c0-9.1,5.1-17,12.5-21.1L30.5,6.4z"/><path class="st2" d="M60.8,12c3.2,5.5,4,12.1,2.4,18.2c-1.6,6.1-5.7,11.4-11.2,14.6l-2-3.5c4.6-2.7,7.9-7,9.3-12.1   c1.4-5.1,0.7-10.6-2-15.2c-2.7-4.6-7-7.9-12.1-9.3S34.6,4,30,6.7l-2-3.5c5.5-3.2,12.1-4,18.2-2.4C52.4,2.5,57.6,6.5,60.8,12z M10,2   H2v44h8V2z"/><path class="st3" d="M4,42V4h4v38c0,1.1-0.9,2-2,2C4.9,44,4,43.1,4,42z M12,0H0v64h12V0z"/></g></svg>